<?xml version="1.0" encoding="utf-8"?>
<!-- Generator: Adobe Illustrator 16.0.0, SVG Export Plug-In . SVG Version: 6.00 Build 0)  -->
<!DOCTYPE svg PUBLIC "-//W3C//DTD SVG 1.1//EN" "http://www.w3.org/Graphics/SVG/1.1/DTD/svg11.dtd">
<svg version="1.1" id="Capa_1" xmlns="http://www.w3.org/2000/svg" xmlns:xlink="http://www.w3.org/1999/xlink" x="0px" y="0px"
	 width="52.307px" height="52.295px" viewBox="0 0 52.307 52.295" enable-background="new 0 0 52.307 52.295" xml:space="preserve">
<path fill="#040606" d="M33.522,0C23.147,0.001,14.742,8.357,14.74,18.67c0,2.973,1.451,6.834,1.451,6.834
	c0.293,0.78,0.761,2.062,1.039,2.849c0,0,0.305,1.143,0.305,2.303c0,0.825-0.967,2.22-2.044,3.218c-1.103-1.103-2.891-1.104-3.994,0
	L1.217,44.151c-1.103,1.104-1.103,2.892,0,3.994l3.275,3.276c0.53,0.529,1.248,0.827,1.997,0.827s1.468-0.298,1.998-0.827
	l10.278-10.279c0.529-0.529,0.827-1.248,0.827-1.997s-0.298-1.468-0.828-1.997l-0.156-0.156c0.876-1.219,2.339-2.43,3.27-2.43
	c1.168,0,1.969,0.302,1.969,0.302c0.789,0.274,2.04,0.736,2.821,1.025c0,0,3.876,1.447,6.868,1.447
	c10.373,0,18.769-8.355,18.771-18.668C52.302,8.357,43.894,0.001,33.522,0z M43.287,27.913c-2.451,2.429-5.8,3.923-9.532,3.925
	c-3.733-0.002-7.083-1.497-9.534-3.925c-2.444-2.437-3.946-5.768-3.949-9.479c0.003-3.71,1.504-7.04,3.948-9.478
	c2.451-2.43,5.8-3.924,9.534-3.925c3.733,0.001,7.081,1.495,9.533,3.925c2.444,2.437,3.946,5.765,3.949,9.478
	C47.233,22.145,45.732,25.477,43.287,27.913z"/>
</svg>
